<svg width="15" height="15" viewBox="0 0 15 15" fill="none" xmlns="http://www.w3.org/2000/svg">
<path fill-rule="evenodd" clip-rule="evenodd" d="M3.11102 2.18002C3.87512 1.66034 4.73455 1.2971 5.63974 1.11124C6.54493 0.925389 7.47796 0.920596 8.38501 1.09714C9.29206 1.27369 10.1552 1.62808 10.9246 2.13988C11.694 2.65168 12.3544 3.31075 12.8678 4.07907C13.3812 4.8474 13.7374 5.70977 13.9159 6.61645C14.0943 7.52313 14.0915 8.45616 13.9075 9.36174C13.7236 10.2673 13.3621 11.1275 12.844 11.8927C12.326 12.6579 11.6615 13.3129 10.889 13.82C9.34546 14.8516 7.45534 15.2277 5.63445 14.8657C3.81357 14.5036 2.21108 13.4331 1.17952 11.8895C0.147963 10.346 -0.22817 8.45583 0.133869 6.63495C0.495908 4.81406 1.56646 3.21158 3.11002 2.18002H3.11102ZM3.66702 12.989C4.32209 13.4316 5.05816 13.7404 5.83295 13.8976C6.60774 14.0549 7.40596 14.0574 8.18174 13.9052C8.95752 13.7529 9.69555 13.4488 10.3534 13.0104C11.0113 12.572 11.5761 12.0079 12.0153 11.3505C12.4544 10.6932 12.7594 9.95548 12.9125 9.17988C13.0657 8.40428 13.064 7.60605 12.9077 6.83108C12.7514 6.05611 12.4435 5.31968 12.0016 4.6641C11.5597 4.00853 10.9927 3.44673 10.333 3.01102C9.00977 2.13699 7.39431 1.82238 5.83977 2.13596C4.28524 2.44954 2.91807 3.3658 2.03712 4.68445C1.15617 6.0031 0.83309 7.61689 1.13851 9.17305C1.44393 10.7292 2.35301 12.1012 3.66702 12.989ZM5.50002 7.00002C5.50002 7.26523 5.39467 7.51959 5.20713 7.70712C5.01959 7.89466 4.76524 8.00002 4.50002 8.00002C4.23481 8.00002 3.98045 7.89466 3.79292 7.70712C3.60538 7.51959 3.50002 7.26523 3.50002 7.00002C3.50002 6.7348 3.60538 6.48044 3.79292 6.29291C3.98045 6.10537 4.23481 6.00002 4.50002 6.00002C4.76524 6.00002 5.01959 6.10537 5.20713 6.29291C5.39467 6.48044 5.50002 6.7348 5.50002 7.00002ZM10.5 7.00002C10.5 7.26523 10.3947 7.51959 10.2071 7.70712C10.0196 7.89466 9.76524 8.00002 9.50002 8.00002C9.23481 8.00002 8.98045 7.89466 8.79292 7.70712C8.60538 7.51959 8.50002 7.26523 8.50002 7.00002C8.50002 6.7348 8.60538 6.48044 8.79292 6.29291C8.98045 6.10537 9.23481 6.00002 9.50002 6.00002C9.76524 6.00002 10.0196 6.10537 10.2071 6.29291C10.3947 6.48044 10.5 6.7348 10.5 7.00002ZM7.00002 11C6.45663 11.0013 5.92308 10.8551 5.45635 10.5768C4.98961 10.2985 4.60723 9.89868 4.35002 9.42002L3.48002 9.90001C3.83017 10.548 4.35242 11.0867 4.98921 11.4568C5.62601 11.8268 6.35262 12.0139 7.08895 11.9974C7.82529 11.9808 8.54276 11.7613 9.16228 11.363C9.78181 10.9647 10.2793 10.4031 10.6 9.74002L9.70002 9.31002C9.45404 9.81679 9.07034 10.2441 8.59284 10.543C8.11535 10.8418 7.56334 11.0002 7.00002 11Z" fill="#424242"/>
</svg>
