<svg width="17" height="16" viewBox="0 0 17 16" fill="none" xmlns="http://www.w3.org/2000/svg">
<g clip-path="url(#clip0_133_1488)">
<path d="M6.42659 15.2054C5.90384 15.376 5.37342 15.3246 4.83532 15.0513C4.26618 14.7622 3.8817 14.3114 3.68186 13.6989C3.48202 13.0864 3.52666 12.4956 3.81577 11.9265L8.21593 2.59172C8.44467 2.12861 8.76681 1.77315 9.18235 1.52534C9.59788 1.27753 10.0613 1.15656 10.5725 1.16241C11.0838 1.16826 11.5968 1.29869 12.1117 1.55372C12.2798 1.64563 12.4426 1.75437 12.6001 1.87995C12.7576 2.00553 12.8982 2.14528 13.0218 2.29919C13.1454 2.4531 13.2566 2.62186 13.3553 2.80546C13.4541 2.98906 13.5353 3.17839 13.5989 3.37345C13.8532 4.20558 13.7976 4.98773 13.4321 5.71989L10.1053 12.7879C10.0606 12.8889 9.9881 12.9578 9.88795 12.9948C9.78779 13.0318 9.68919 13.0273 9.59216 12.9813C9.49513 12.9352 9.42748 12.8602 9.38921 12.7561C9.35094 12.6521 9.35419 12.5496 9.39895 12.4486L12.7258 5.38059C13.0018 4.82435 13.0419 4.23286 12.8461 3.60613C12.6502 2.9794 12.2845 2.53327 11.749 2.26773C11.4153 2.09172 11.0747 1.98703 10.7271 1.95368C10.3795 1.92032 10.0378 1.98433 9.70201 2.1457C9.36618 2.30707 9.10628 2.56884 8.9223 2.93102L4.52214 12.2658C4.32765 12.6486 4.29659 13.0429 4.42897 13.4486C4.56134 13.8544 4.81897 14.1545 5.20184 14.349C5.37776 14.4383 5.55456 14.4907 5.73224 14.5061C5.90993 14.5215 6.08205 14.4934 6.24861 14.4218C6.58682 14.2942 6.85452 14.0299 7.05173 13.6288L10.5444 6.19592C10.5707 6.14418 10.5944 6.09113 10.6155 6.03676C10.6366 5.98239 10.6571 5.91958 10.677 5.84834C10.6969 5.77709 10.7078 5.70449 10.7095 5.63054C10.7113 5.55658 10.7053 5.48517 10.6914 5.4163C10.6776 5.34744 10.6436 5.28299 10.5895 5.22295C10.5354 5.16291 10.4669 5.11187 10.3841 5.06981C10.185 4.96214 10.0177 4.93901 9.88238 5.00044C9.73923 5.06441 9.60331 5.21667 9.4746 5.45722L6.84621 11.0542C6.81467 11.1163 6.77088 11.1673 6.71482 11.2072C6.65877 11.2471 6.59504 11.27 6.52363 11.276C6.45221 11.2821 6.38546 11.2693 6.32338 11.2378C6.22244 11.193 6.15543 11.1199 6.12234 11.0185C6.08924 10.9171 6.09508 10.8159 6.13984 10.7149L8.76441 5.10622C8.98248 4.68976 9.25027 4.41246 9.56778 4.27433C9.9321 4.12093 10.3212 4.14936 10.7351 4.35962C11.1258 4.55157 11.3672 4.84833 11.4594 5.2499C11.5516 5.65147 11.482 6.07991 11.2507 6.53522L7.76192 13.9799C7.46755 14.5593 7.05628 14.9525 6.5281 15.1594C6.5125 15.1645 6.49558 15.1721 6.47735 15.1824C6.45911 15.1927 6.4422 15.2004 6.42659 15.2054Z" fill="#424242" stroke="#424242" stroke-width="0.2"/>
</g>
<defs>
<clipPath id="clip0_133_1488">
<rect width="13" height="12.2121" fill="white" transform="translate(0.426636 4.31738) rotate(-18.0702)"/>
</clipPath>
</defs>
</svg>
