<svg width="16" height="16" viewBox="0 0 16 16" fill="none" xmlns="http://www.w3.org/2000/svg">
<path d="M7.99999 14.6666C11.614 14.6666 14.6667 11.6139 14.6667 7.99992C14.6667 4.38592 11.614 1.33325 7.99999 1.33325C4.38599 1.33325 1.33333 4.38592 1.33333 7.99992C1.33333 11.6139 4.38599 14.6666 7.99999 14.6666ZM7.99999 2.66659C10.8913 2.66659 13.3333 5.10859 13.3333 7.99992C13.3333 10.8913 10.8913 13.3333 7.99999 13.3333C5.10866 13.3333 2.66666 10.8913 2.66666 7.99992C2.66666 5.10859 5.10866 2.66659 7.99999 2.66659Z" fill="white"/>
<path d="M8.00001 11.3334C8.60067 11.3334 9.72067 11.2214 10.4713 10.4721L9.52867 9.52808C9.23334 9.82341 8.66134 10.0001 8.00001 10.0001C6.91601 10.0001 6.00001 9.08408 6.00001 8.00008C6.00001 6.91608 6.91601 6.00008 8.00001 6.00008C8.66201 6.00008 9.23401 6.17675 9.52867 6.47141L10.4713 5.52875C9.72134 4.77875 8.60067 4.66675 8.00001 4.66675C6.16201 4.66675 4.66667 6.16208 4.66667 8.00008C4.66667 9.83808 6.16201 11.3334 8.00001 11.3334Z" fill="white"/>
</svg>
