<svg width="20" height="19" viewBox="0 0 20 19" fill="none" xmlns="http://www.w3.org/2000/svg">
<path d="M18 13H12.388L13.511 16.367C13.713 16.975 13.611 17.649 13.236 18.169C12.861 18.689 12.253 19 11.612 19H10C9.703 19 9.422 18.868 9.231 18.64L4.531 13H2C0.897 13 0 12.103 0 11V2C0 0.897 0.897 0 2 0H15.307C15.7139 0.00135 16.1108 0.12616 16.4452 0.35792C16.7797 0.58969 17.0359 0.91749 17.18 1.298L19.937 8.649C19.9789 8.7613 20.0002 8.8802 20 9V11C20 12.103 19.103 13 18 13ZM2 11H4V2H2V11ZM18 9.181L15.307 2H6V11.638L10.468 17H11.614L10.052 12.317C10.0013 12.1667 9.9871 12.0064 10.0107 11.8496C10.0343 11.6927 10.095 11.5437 10.1877 11.415C10.2803 11.2862 10.4024 11.1814 10.5436 11.1092C10.6849 11.0371 10.8414 10.9996 11 11H18V9.181Z" fill="#00A23D"/>
</svg>
