<svg width="29" height="23" viewBox="0 0 29 23" fill="none" xmlns="http://www.w3.org/2000/svg">
<path d="M20.5416 2.44529C23.6668 2.44529 26.2083 4.61615 26.2083 7.28556C26.2083 12.9354 18.3557 18.1048 14.1666 20.6241C9.97755 18.1048 2.12499 12.9354 2.12499 7.28556C2.12499 4.61615 4.66649 2.44529 7.79164 2.44529C8.70158 2.44704 9.5977 2.63547 10.4046 2.99472C11.2115 3.35397 11.9056 3.87353 12.4284 4.50966L14.1666 6.62365L15.9049 4.51087C16.4274 3.87437 17.1213 3.35447 17.9283 2.99498C18.7352 2.6355 19.6315 2.44698 20.5416 2.44529ZM20.5416 0.630188C19.2902 0.630032 18.0573 0.887791 16.9475 1.38158C15.8377 1.87537 14.8837 2.59062 14.1666 3.46659C13.4495 2.59062 12.4956 1.87537 11.3858 1.38158C10.2759 0.887791 9.04301 0.630032 7.79164 0.630188C5.72517 0.630188 3.74334 1.33138 2.28212 2.5795C0.820903 3.82763 0 5.52045 0 7.28556C0 14.2059 9.20831 19.9162 14.1666 22.8349C19.1249 19.9162 28.3333 14.2059 28.3333 7.28556C28.3333 6.41156 28.1317 5.54613 27.7401 4.73866C27.3486 3.93119 26.7747 3.19751 26.0511 2.5795C25.3276 1.96149 24.4687 1.47126 23.5233 1.1368C22.578 0.802334 21.5648 0.630188 20.5416 0.630188Z" fill="black"/>
</svg>
