<svg width="18" height="18" viewBox="0 0 18 18" fill="none" xmlns="http://www.w3.org/2000/svg">
<circle cx="9" cy="9" r="8.25" stroke="white" stroke-width="1.5"/>
<g clip-path="url(#clip0_90_842)">
<path d="M13.861 12.3154L12.4511 13.7139C12.243 13.9274 11.9671 13.9997 11.6984 14C10.5103 13.9644 9.38733 13.3808 8.46526 12.7815C6.95174 11.6805 5.56303 10.3152 4.69144 8.66527C4.35716 7.97341 3.96493 7.09065 4.0024 6.31841C4.00574 6.02791 4.08403 5.7428 4.28862 5.55555L5.6985 4.14637C5.99127 3.89735 6.27439 3.98345 6.46174 4.27352L7.596 6.42437C7.71539 6.67918 7.6469 6.95219 7.46879 7.13427L6.94935 7.65343C6.91729 7.69736 6.89687 7.74736 6.89635 7.80178C7.09554 8.57279 7.69896 9.28343 8.23203 9.77249C8.76509 10.2616 9.33807 10.9241 10.0818 11.081C10.1738 11.1066 10.2864 11.1157 10.3522 11.0545L10.9564 10.44C11.1647 10.2821 11.4655 10.2049 11.6878 10.334H11.6984L13.7443 11.5419C14.0447 11.7302 14.076 12.094 13.861 12.3154Z" fill="white"/>
</g>
<defs>
<clipPath id="clip0_90_842">
<rect x="4" y="4" width="10" height="10" rx="5" fill="white"/>
</clipPath>
</defs>
</svg>
