<svg width="25" height="25" viewBox="0 0 25 25" fill="none" xmlns="http://www.w3.org/2000/svg">
<path d="M16.38 12.48C16.38 13.5143 15.9691 14.5063 15.2377 15.2377C14.5063 15.9691 13.5143 16.38 12.48 16.38C11.4457 16.38 10.4537 15.9691 9.72228 15.2377C8.99089 14.5063 8.58 13.5143 8.58 12.48C8.58 12.2577 8.6034 12.0406 8.6437 11.83H7.28V17.0261C7.28 17.3875 7.5725 17.68 7.9339 17.68H17.0274C17.2006 17.6797 17.3666 17.6106 17.4889 17.488C17.6113 17.3654 17.68 17.1993 17.68 17.0261V11.83H16.3163C16.3566 12.0406 16.38 12.2577 16.38 12.48ZM12.48 15.08C12.8215 15.0799 13.1597 15.0126 13.4752 14.8818C13.7907 14.751 14.0773 14.5594 14.3187 14.3178C14.5602 14.0763 14.7517 13.7895 14.8823 13.474C15.0129 13.1584 15.0801 12.8202 15.08 12.4787C15.0799 12.1372 15.0126 11.799 14.8818 11.4835C14.751 11.168 14.5594 10.8814 14.3178 10.64C14.0763 10.3985 13.7895 10.207 13.474 10.0764C13.1584 9.9458 12.8202 9.87861 12.4787 9.8787C11.789 9.87887 11.1275 10.153 10.64 10.6409C10.1524 11.1287 9.87853 11.7903 9.8787 12.48C9.87887 13.1697 10.153 13.8312 10.6409 14.3187C11.1287 14.8063 11.7903 15.0802 12.48 15.08ZM15.6 9.75H17.1587C17.2623 9.75 17.3616 9.70895 17.4349 9.63585C17.5083 9.56275 17.5497 9.46355 17.55 9.36V7.8013C17.55 7.69752 17.5088 7.59799 17.4354 7.52461C17.362 7.45123 17.2625 7.41 17.1587 7.41H15.6C15.4962 7.41 15.3967 7.45123 15.3233 7.52461C15.2499 7.59799 15.2087 7.69752 15.2087 7.8013V9.36C15.21 9.5745 15.3855 9.75 15.6 9.75ZM12.48 0C9.1701 0 5.99576 1.31485 3.65531 3.65531C1.31485 5.99576 0 9.1701 0 12.48C0 15.7899 1.31485 18.9642 3.65531 21.3047C5.99576 23.6451 9.1701 24.96 12.48 24.96C14.1189 24.96 15.7417 24.6372 17.2559 24.01C18.77 23.3828 20.1458 22.4636 21.3047 21.3047C22.4636 20.1458 23.3828 18.77 24.01 17.2559C24.6372 15.7417 24.96 14.1189 24.96 12.48C24.96 10.8411 24.6372 9.21825 24.01 7.70411C23.3828 6.18997 22.4636 4.81418 21.3047 3.65531C20.1458 2.49643 18.77 1.57716 17.2559 0.949983C15.7417 0.322805 14.1189 0 12.48 0ZM18.98 17.5357C18.98 18.33 18.33 18.98 17.5357 18.98H7.4243C6.63 18.98 5.98 18.33 5.98 17.5357V7.4243C5.98 6.63 6.63 5.98 7.4243 5.98H17.5357C18.33 5.98 18.98 6.63 18.98 7.4243V17.5357Z" fill="#424242"/>
</svg>
