<svg width="25" height="25" viewBox="0 0 25 25" fill="none" xmlns="http://www.w3.org/2000/svg">
<circle cx="12.5" cy="12.5" r="12.5" fill="#424242"/>
<path d="M12.4885 12.7624C10.1365 12.7624 8.1817 10.9578 8.1817 8.82237C8.1817 6.61312 10.1365 4.80771 12.4894 4.80771C14.9221 4.80771 16.7962 6.61235 16.7962 8.82237C16.792 9.87089 16.3374 10.875 15.5323 11.6139C14.7272 12.3529 13.6375 12.7663 12.5027 12.7632L12.4885 12.7624ZM12.4885 7.12851C11.4928 7.12851 10.7352 7.90159 10.7352 8.82314C10.7352 9.74316 11.4928 10.4432 12.4894 10.4432C13.5259 10.4432 14.2435 9.74316 14.2435 8.82314C14.2444 7.90082 13.5259 7.12851 12.4885 7.12851ZM14.2036 16.0409L16.6371 18.214C17.1159 18.6917 17.1159 19.3917 16.6371 19.8341C16.1193 20.3117 15.3209 20.3117 14.9221 19.8341L12.4894 17.624L10.1365 19.8341C9.8976 20.0548 9.5779 20.1648 9.21824 20.1648C8.93933 20.1648 8.62046 20.0541 8.34072 19.8341C7.862 19.3917 7.862 18.6917 8.34072 18.2133L10.8134 16.0402C9.92044 15.7958 9.06383 15.4498 8.26329 15.0101C7.66468 14.7155 7.54563 13.9794 7.8645 13.4263C8.26329 12.874 8.98096 12.727 9.61953 13.0955C10.4842 13.5831 11.4776 13.841 12.4906 13.841C13.5036 13.841 14.497 13.5831 15.3617 13.0955C16.0002 12.727 16.757 12.874 17.1159 13.4263C17.4755 13.9794 17.3148 14.7148 16.7562 15.0101C15.9994 15.4525 15.1219 15.784 14.2044 16.0417L14.2036 16.0409Z" fill="white"/>
</svg>
