<svg width="170" height="71" viewBox="0 0 170 71" fill="none" xmlns="http://www.w3.org/2000/svg">
<path fill-rule="evenodd" clip-rule="evenodd" d="M12.933 71C8.8865 69.1382 5.52209 66.0716 3.30562 62.2247C1.67888 59.0096 0.853403 55.4527 0.898783 51.8539C0.926863 43.9482 -0.355177 37.0437 0.0965029 28.7191C0.496093 21.0126 0.496093 13.2908 0.0965029 5.58427L0.898783 2.39326L2.50334 0H11.3284L141 2.39326C141 2.39326 144 2.65327 147.716 3.98876C149.741 4.71652 151.445 6.12823 152.53 7.97753C155.572 12.5516 158.254 17.3524 160.552 22.3371C163.28 28.2516 166.72 36.001 168.575 39.8876C169.264 41.3324 170.887 44.6853 169.378 47.0674C168.352 48.6861 166.173 49.3721 163.762 49.4607L42.6173 51.0562C38.7913 51.0977 34.3282 51.136 31.3854 51.0562C28.956 51.0496 26.5336 51.3172 24.1649 51.8539C21.7913 52.3686 19.5849 53.4655 17.7467 55.0449C16.4571 56.4834 15.3769 58.0946 14.5375 59.8315C13.8716 61.1051 13.3341 62.4412 12.933 63.8202C12.3662 66.1803 12.3662 68.6399 12.933 71Z" fill="#FAAF3A"/>
</svg>
