<svg width="29" height="23" viewBox="0 0 29 23" fill="none" xmlns="http://www.w3.org/2000/svg">
<path d="M20.5417 1.875C23.6668 1.875 26.2083 4.1175 26.2083 6.875C26.2083 12.7113 18.3558 18.0513 14.1667 20.6538C9.97758 18.0513 2.125 12.7113 2.125 6.875C2.125 4.1175 4.6665 1.875 7.79167 1.875C8.7016 1.87681 9.59773 2.07146 10.4046 2.44256C11.2115 2.81367 11.9056 3.35037 12.4284 4.0075L14.1667 6.19125L15.9049 4.00875C16.4274 3.35124 17.1214 2.81418 17.9283 2.44283C18.7353 2.07149 19.6316 1.87674 20.5417 1.875ZM20.5417 7.32046e-08C19.2903 -0.000161186 18.0574 0.266104 16.9475 0.776191C15.8377 1.28628 14.8838 2.02512 14.1667 2.93C13.4496 2.02512 12.4956 1.28628 11.3858 0.776191C10.276 0.266104 9.04303 -0.000161186 7.79167 7.32046e-08C5.72519 7.32046e-08 3.74335 0.724328 2.28213 2.01364C0.820906 3.30295 0 5.05164 0 6.875C0 14.0238 9.20833 19.9225 14.1667 22.9375C19.125 19.9225 28.3333 14.0238 28.3333 6.875C28.3333 5.97216 28.1318 5.07817 27.7402 4.24405C27.3487 3.40994 26.7747 2.65204 26.0512 2.01364C25.3277 1.37524 24.4687 0.868829 23.5234 0.523328C22.5781 0.177827 21.5649 7.32046e-08 20.5417 7.32046e-08Z" fill="#FAAF3A"/>
</svg>
