<svg width="20" height="26" viewBox="0 0 20 26" fill="none" xmlns="http://www.w3.org/2000/svg">
<path d="M17.197 17.075C17.9532 16.6688 18.8188 16.4375 19.7407 16.4375H19.7438C19.8376 16.4375 19.8813 16.325 19.8126 16.2625C18.8539 15.4021 17.7587 14.7072 16.572 14.2062C16.5595 14.2 16.547 14.1969 16.5345 14.1906C18.4751 12.7812 19.7376 10.4906 19.7376 7.90625C19.7376 3.625 16.2751 0.15625 12.0032 0.15625C7.73133 0.15625 4.27195 3.625 4.27195 7.90625C4.27195 10.4906 5.53445 12.7812 7.4782 14.1906C7.4657 14.1969 7.4532 14.2 7.4407 14.2062C6.04383 14.7969 4.7907 15.6438 3.71258 16.725C2.64068 17.795 1.78731 19.0633 1.20008 20.4594C0.622306 21.8264 0.310489 23.2911 0.281328 24.775C0.280494 24.8084 0.286344 24.8415 0.298534 24.8726C0.310724 24.9036 0.329006 24.932 0.352304 24.9558C0.375603 24.9797 0.403445 24.9987 0.434191 25.0116C0.464937 25.0246 0.497965 25.0313 0.531328 25.0312H2.4032C2.53758 25.0312 2.65008 24.9219 2.6532 24.7875C2.7157 22.375 3.68133 20.1156 5.3907 18.4031C7.15633 16.6313 9.50633 15.6562 12.0063 15.6562C13.7782 15.6562 15.4782 16.1469 16.9438 17.0656C16.9815 17.0893 17.0247 17.1026 17.0691 17.1043C17.1136 17.1059 17.1577 17.0958 17.197 17.075ZM12.0063 13.2812C10.5751 13.2812 9.2282 12.7219 8.21258 11.7063C7.71287 11.2078 7.31673 10.6155 7.04695 9.96331C6.77718 9.31113 6.63911 8.61202 6.6407 7.90625C6.6407 6.47187 7.20008 5.12187 8.21258 4.10625C9.22508 3.09062 10.572 2.53125 12.0063 2.53125C13.4407 2.53125 14.7845 3.09062 15.8001 4.10625C16.2998 4.60466 16.6959 5.19701 16.9657 5.84919C17.2355 6.50137 17.3735 7.20048 17.372 7.90625C17.372 9.34062 16.8126 10.6906 15.8001 11.7063C14.7845 12.7219 13.4376 13.2812 12.0063 13.2812Z" fill="#424242"/>
</svg>
