<svg width="30" height="30" viewBox="0 0 30 30" fill="none" xmlns="http://www.w3.org/2000/svg">
<circle cx="15" cy="15" r="15" fill="white"/>
<path d="M14.9861 15.3149C12.1638 15.3149 9.81797 13.1494 9.81797 10.5869C9.81797 7.93578 12.1638 5.76929 14.9871 5.76929C17.9064 5.76929 20.1553 7.93485 20.1553 10.5869C20.1503 11.8451 19.6048 13.05 18.6387 13.9367C17.6726 14.8235 16.3649 15.3195 15.0031 15.3159L14.9861 15.3149V15.3149ZM14.9861 8.55425C13.7913 8.55425 12.8821 9.48195 12.8821 10.5878C12.8821 11.6918 13.7913 12.5318 14.9871 12.5318C16.231 12.5318 17.0922 11.6918 17.0922 10.5878C17.0932 9.48103 16.231 8.55425 14.9861 8.55425ZM17.0442 19.2491L19.9645 21.8569C20.539 22.4301 20.539 23.2701 19.9645 23.8009C19.3431 24.3741 18.385 24.3741 17.9064 23.8009L14.9871 21.1489L12.1638 23.8009C11.877 24.0658 11.4934 24.1978 11.0618 24.1978C10.7271 24.1978 10.3445 24.0649 10.0088 23.8009C9.43433 23.2701 9.43433 22.4301 10.0088 21.8559L12.976 19.2482C11.9045 18.955 10.8765 18.5398 9.91588 18.0122C9.19755 17.6587 9.05468 16.7753 9.43733 16.1116C9.91588 15.4488 10.7771 15.2725 11.5434 15.7146C12.581 16.2997 13.7731 16.6092 14.9886 16.6092C16.2042 16.6092 17.3963 16.2997 18.4339 15.7146C19.2002 15.2725 20.1084 15.4488 20.539 16.1116C20.9706 16.7753 20.7777 17.6577 20.1074 18.0122C19.1992 18.543 18.1462 18.9408 17.0452 19.2501L17.0442 19.2491V19.2491Z" fill="#00A23D"/>
</svg>
