<svg width="18" height="18" viewBox="0 0 18 18" fill="none" xmlns="http://www.w3.org/2000/svg">
<circle cx="9" cy="9" r="9" fill="#424242"/>
<g clip-path="url(#clip0_150_3927)">
<rect width="10" height="10" transform="translate(4 4)" fill="#424242"/>
<path d="M13.8611 12.3154L12.4512 13.714C12.243 13.9274 11.9672 13.9997 11.6985 14.0001C10.5104 13.9645 9.38742 13.3809 8.46535 12.7816C6.95184 11.6805 5.56312 10.3152 4.69154 8.66533C4.35725 7.97347 3.96502 7.09071 4.00249 6.31847C4.00583 6.02797 4.08412 5.74286 4.28871 5.55561L5.69859 4.14643C5.99136 3.89741 6.27449 3.98351 6.46184 4.27358L7.59609 6.42443C7.71548 6.67924 7.64699 6.95225 7.46888 7.13433L6.94944 7.65349C6.91738 7.69742 6.89696 7.74742 6.89644 7.80184C7.09563 8.57285 7.69905 9.2835 8.23212 9.77255C8.76518 10.2616 9.33816 10.9242 10.0819 11.0811C10.1739 11.1067 10.2865 11.1157 10.3522 11.0546L10.9565 10.44C11.1648 10.2822 11.4655 10.205 11.6879 10.3341H11.6985L13.7444 11.542C14.0448 11.7302 14.0761 12.0941 13.8611 12.3154Z" fill="white"/>
</g>
<defs>
<clipPath id="clip0_150_3927">
<rect width="10" height="10" fill="white" transform="translate(4 4)"/>
</clipPath>
</defs>
</svg>
