<svg width="15" height="16" viewBox="0 0 15 16" fill="none" xmlns="http://www.w3.org/2000/svg">
<path d="M6.41471 13.0965C7.83796 13.0963 9.22019 12.6351 10.3413 11.7864L13.8662 15.1984L15 14.1009L11.4751 10.6888C12.3523 9.60347 12.8291 8.26516 12.8294 6.8871C12.8294 3.46336 9.95162 0.677643 6.41471 0.677643C2.8778 0.677643 0 3.46336 0 6.8871C0 10.3108 2.8778 13.0965 6.41471 13.0965ZM6.41471 2.23001C9.068 2.23001 11.2257 4.31871 11.2257 6.8871C11.2257 9.45548 9.068 11.5442 6.41471 11.5442C3.76143 11.5442 1.60368 9.45548 1.60368 6.8871C1.60368 4.31871 3.76143 2.23001 6.41471 2.23001Z" fill="#BDBDBD"/>
</svg>
